# xmcd CD database file
#
# Track frame offsets:
#	150
#	1797
#	19157
#	39494
#	53739
#	74272
#	90574
#	107359
#	125282
#	140172
#	160849
#	173157
#
# Disc length: 2434 seconds
#
# Revision: 0
# Processed by: cddbd v1.5.1PL0 Copyright (c) Steve Scherf et al.
# Submitted via: Feurio! 1.67 - http://www.feurio.com
#
DISCID=9009800c
DTITLE=Die Drahtzieher - Razzia
DYEAR=2003
DGENRE=
TTITLE0=Razzia
TTITLE1=Kriminal-Tango
TTITLE2=This Masquerade
TTITLE3=All of me
TTITLE4=Easy
TTITLE5=Come together
TTITLE6=Moon over Bourbon Street
TTITLE7=Sweet Dreams
TTITLE8=Mackie Messer
TTITLE9=Message in a Bottle
TTITLE10=Dream a little Dream of me
TTITLE11=Ring of Fire
EXTD=
EXTT0=
EXTT1=
EXTT2=
EXTT3=
EXTT4=
EXTT5=
EXTT6=
EXTT7=
EXTT8=
EXTT9=
EXTT10=
EXTT11=
PLAYORDER=
